<?xml version="1.0" standalone="no"?>
<!DOCTYPE svg PUBLIC "-//W3C//DTD SVG 20010904//EN"
 "http://www.w3.org/TR/2001/REC-SVG-20010904/DTD/svg10.dtd">
<svg version="1.0" xmlns="http://www.w3.org/2000/svg"
 width="1280.000000pt" height="640.000000pt" viewBox="0 0 1280.000000 640.000000"
 preserveAspectRatio="xMidYMid meet">
<metadata>
Created by potrace 1.15, written by Peter Selinger 2001-2017
</metadata>
<g transform="translate(0.000000,640.000000) scale(0.100000,-0.100000)"
fill="#000000" stroke="none">
<path d="M1504 6297 c-13 -36 4 -200 30 -282 67 -209 270 -467 614 -780 61
-55 109 -101 108 -102 -3 -3 -600 306 -861 445 -376 200 -759 419 -1061 607
-74 47 -144 85 -154 85 -27 0 -34 -51 -27 -179 17 -276 125 -495 348 -705 197
-185 419 -343 904 -641 160 -98 313 -193 340 -212 28 -18 60 -33 73 -33 26 0
152 61 170 83 10 12 0 34 -53 118 -36 57 -70 121 -77 142 -10 33 -9 40 10 60
12 13 49 36 82 52 48 23 60 33 58 50 -2 16 -100 69 -458 250 -250 127 -513
263 -585 304 -154 87 -355 210 -355 218 0 3 19 -6 43 -20 107 -62 367 -197
916 -472 l593 -298 -103 -34 c-110 -36 -139 -54 -139 -87 0 -51 133 -206 208
-243 l43 -21 96 35 c116 41 113 39 113 64 0 14 -12 26 -40 37 -37 16 -53 32
-30 32 17 0 11 22 -22 87 -23 45 -29 66 -21 74 14 14 144 61 151 55 3 -3 -16
-14 -42 -25 -54 -24 -70 -53 -50 -92 22 -43 99 -132 148 -169 25 -19 45 -38
46 -42 0 -5 -13 -8 -29 -8 -43 0 -196 -28 -226 -42 -60 -27 -37 -105 62 -199
35 -34 62 -63 61 -65 -11 -11 -105 68 -143 120 -25 33 -50 67 -55 74 -14 16
-102 15 -166 -2 -110 -29 -284 -151 -284 -199 0 -50 164 -196 297 -264 70 -37
72 -37 105 -22 18 9 53 33 78 54 25 21 69 51 98 67 79 45 70 64 -43 97 -83 23
-48 28 59 7 63 -12 86 -26 86 -51 0 -5 -50 -46 -111 -90 -125 -89 -146 -113
-130 -143 17 -32 97 -97 156 -128 56 -30 63 -41 45 -75 -13 -23 -51 -24 -155
-4 l-70 13 81 1 c101 1 114 16 51 60 -23 16 -71 54 -107 85 -36 31 -74 56 -86
56 -11 0 -45 -8 -75 -19 -120 -41 -214 -104 -245 -162 -13 -26 -13 -32 5 -68
44 -86 160 -174 302 -229 l76 -29 74 63 c41 35 78 64 82 64 5 0 -19 -27 -52
-61 -62 -61 -74 -91 -48 -120 42 -48 80 -73 134 -84 56 -13 57 -13 18 -14 -23
-1 -68 -8 -100 -17 -33 -8 -89 -17 -125 -19 l-65 -4 75 12 c92 15 97 26 37 98
-49 61 -63 66 -177 68 -150 2 -269 -53 -342 -158 -54 -77 -52 -107 12 -175 85
-90 198 -137 363 -152 90 -8 97 -3 164 93 20 29 38 51 41 49 2 -3 -5 -18 -17
-35 -12 -17 -27 -44 -33 -62 -14 -41 -2 -49 76 -49 33 0 56 -3 52 -7 -4 -4
-51 -8 -104 -8 -91 0 -102 -3 -174 -38 -89 -43 -178 -126 -221 -206 -28 -51
-29 -53 -10 -73 65 -72 206 -112 378 -107 144 5 155 12 208 135 48 112 63 129
32 35 -29 -86 -30 -94 -10 -111 12 -10 27 -11 63 -2 26 6 48 9 50 8 1 -2 -24
-13 -55 -24 -90 -33 -187 -113 -276 -227 -42 -55 -81 -113 -86 -130 -8 -27 -5
-33 27 -63 120 -109 343 -144 480 -75 l57 28 25 90 c26 91 58 164 44 100 -4
-16 -11 -40 -15 -53 -5 -13 -9 -46 -9 -73 0 -59 17 -71 61 -45 16 10 29 12 29
7 0 -6 -4 -11 -9 -11 -18 0 -112 -94 -130 -129 -25 -49 -66 -182 -81 -264 -12
-66 -12 -70 9 -90 17 -17 33 -21 88 -21 82 0 153 30 291 123 50 33 93 61 96
61 2 0 -3 -24 -11 -52 -20 -70 -29 -338 -14 -395 7 -24 17 -43 23 -43 6 0 30
11 53 24 78 46 169 183 179 271 7 64 -5 167 -21 172 -6 3 -21 -13 -33 -34 -24
-43 -23 -39 15 75 21 64 31 82 44 80 13 -3 16 -21 19 -116 2 -85 6 -114 16
-118 21 -8 66 19 111 65 71 74 59 43 -16 -41 l-74 -81 2 -126 c2 -135 21 -236
54 -291 18 -29 24 -32 55 -27 19 3 50 15 69 27 49 31 164 162 175 202 6 18 11
85 12 148 l1 115 6 -93 c5 -77 10 -96 26 -108 16 -12 22 -12 43 2 14 9 35 28
48 43 12 14 25 24 28 20 3 -3 -15 -28 -39 -56 -65 -74 -68 -87 -50 -215 22
-157 29 -167 107 -127 75 38 204 194 233 281 8 24 19 79 24 123 4 44 9 64 10
44 0 -20 6 -50 12 -68 15 -43 44 -40 97 11 25 24 41 36 36 26 -12 -23 -91
-105 -112 -117 -15 -8 -17 -27 -16 -143 0 -185 18 -210 117 -165 96 44 187
158 238 296 20 58 21 67 9 132 -12 69 -8 110 5 50 14 -63 74 -20 140 102 33
59 78 108 89 96 2 -2 -1 -28 -6 -57 -9 -44 -12 -50 -23 -36 -7 10 -17 14 -23
10 -6 -4 -44 -55 -83 -114 l-71 -107 5 -81 c7 -95 24 -169 43 -185 25 -21 68
1 134 70 71 73 131 178 151 267 10 43 9 59 -5 99 -9 27 -16 56 -15 64 0 9 5 0
12 -19 15 -43 41 -49 73 -19 33 31 30 18 -7 -34 l-30 -43 17 -75 c18 -80 34
-118 58 -139 29 -23 89 29 166 145 38 58 71 113 75 124 7 24 33 35 50 21 7 -6
16 -26 19 -44 10 -55 30 -63 71 -32 19 15 35 33 35 40 0 8 6 16 14 19 8 3 28
35 46 71 l32 65 -120 223 c-66 123 -147 277 -180 343 -73 146 -86 160 -144
151 -24 -4 -52 -13 -64 -21 -12 -7 -39 -17 -60 -21 -21 -3 -127 -31 -234 -61
l-195 -55 -180 5 c-200 6 -255 17 -419 88 -188 81 -362 214 -460 353 -95 134
-141 252 -155 402 -13 151 -6 207 44 309 97 200 129 377 122 679 -4 187 -7
223 -31 316 -38 147 -109 287 -191 377 -82 89 -134 122 -308 189 -225 88 -353
159 -542 299 -209 155 -458 398 -714 699 -208 244 -188 224 -197 203z"/>
<path d="M11184 6192 c-439 -524 -784 -831 -1131 -1005 -39 -20 -134 -61 -210
-91 -174 -67 -226 -100 -308 -189 -82 -90 -153 -230 -191 -377 -24 -93 -27
-129 -31 -316 -7 -302 25 -479 122 -679 50 -102 57 -158 44 -309 -11 -110 -30
-180 -76 -271 -107 -212 -292 -378 -539 -484 -164 -71 -219 -82 -419 -88
l-180 -5 -195 55 c-107 30 -213 58 -234 61 -21 4 -48 14 -60 21 -12 8 -40 17
-64 21 -58 9 -71 -5 -144 -151 -33 -66 -114 -220 -180 -343 l-119 -222 24 -53
c13 -28 34 -62 46 -74 11 -12 21 -27 21 -32 0 -6 16 -22 35 -37 41 -31 61 -23
71 32 3 18 12 38 19 44 17 14 43 3 50 -21 4 -11 37 -66 75 -124 77 -116 137
-168 166 -145 24 21 40 59 58 139 l17 75 -30 43 c-37 52 -40 65 -7 34 32 -30
58 -24 73 19 7 19 12 28 12 19 1 -8 -6 -37 -15 -64 -14 -40 -15 -56 -5 -99 20
-89 80 -194 151 -267 66 -69 109 -91 134 -70 19 16 36 90 43 185 l5 81 -71
107 c-39 59 -77 110 -83 114 -6 4 -16 0 -23 -10 -11 -14 -14 -8 -23 36 -5 29
-8 55 -6 57 11 12 56 -37 89 -96 66 -122 126 -165 140 -102 13 60 17 19 5 -50
-12 -65 -11 -74 9 -132 51 -138 137 -246 235 -294 101 -49 120 -24 120 163 1
116 -1 135 -16 143 -21 12 -100 94 -112 117 -5 10 11 -2 36 -26 53 -51 82 -54
97 -11 6 18 12 48 12 68 1 20 6 0 10 -44 5 -44 16 -99 24 -123 29 -87 158
-243 233 -281 78 -40 85 -30 107 127 18 128 15 141 -50 215 -24 28 -42 53 -39
56 3 4 16 -6 28 -20 13 -15 34 -34 48 -43 21 -14 27 -14 43 -2 16 12 21 31 26
108 l6 93 1 -115 c1 -63 6 -130 12 -148 11 -40 126 -171 175 -202 19 -12 50
-24 69 -27 31 -5 37 -2 55 27 33 55 52 156 54 291 l2 126 -74 81 c-75 84 -87
115 -16 41 45 -46 90 -73 111 -65 10 4 14 33 16 118 3 95 6 113 19 116 13 2
23 -16 44 -80 38 -114 39 -118 15 -75 -12 21 -27 37 -33 34 -16 -5 -28 -108
-21 -172 10 -88 101 -225 179 -271 23 -13 47 -24 53 -24 6 0 16 19 23 43 15
57 6 325 -14 395 -8 28 -13 52 -11 52 3 0 46 -28 96 -61 138 -93 209 -123 291
-123 56 0 71 4 89 22 l22 21 -22 105 c-39 185 -96 291 -184 344 -16 9 -28 20
-28 25 0 4 13 0 29 -9 44 -26 61 -14 61 45 0 27 -4 60 -9 73 -4 13 -11 37 -15
53 -14 64 18 -9 44 -100 l25 -90 57 -28 c137 -69 360 -34 480 75 32 30 35 36
27 63 -5 17 -44 75 -86 130 -89 114 -186 194 -276 227 -31 11 -56 22 -55 24 2
1 24 -2 50 -8 36 -9 51 -8 63 2 20 17 19 25 -10 111 -31 94 -16 77 32 -35 53
-123 64 -130 208 -135 172 -5 313 35 378 107 19 20 18 22 -10 73 -43 80 -132
163 -221 206 -72 35 -83 38 -174 38 -53 0 -100 4 -104 8 -4 4 19 7 52 7 78 0
90 8 76 49 -6 18 -21 45 -33 62 -12 17 -19 32 -17 35 3 2 21 -20 41 -49 67
-96 74 -101 164 -93 165 15 278 62 363 152 64 68 66 98 12 175 -73 105 -192
160 -342 158 -114 -2 -128 -7 -177 -68 -60 -72 -55 -83 37 -98 l75 -12 -65 4
c-36 2 -92 11 -125 19 -32 9 -77 16 -100 17 -39 1 -38 1 18 14 54 11 92 36
135 84 25 29 13 59 -49 120 -33 34 -57 61 -52 61 4 0 42 -29 83 -64 41 -35 77
-63 80 -61 3 1 40 17 83 34 137 54 245 138 288 223 18 35 18 41 5 67 -19 36
-75 85 -128 112 -62 32 -165 69 -191 69 -12 0 -51 -25 -87 -56 -36 -31 -84
-69 -107 -85 -63 -44 -50 -59 51 -60 l81 -1 -70 -13 c-104 -20 -142 -19 -155
4 -18 34 -11 45 45 75 59 31 139 96 156 128 16 30 -5 54 -130 143 -61 44 -111
85 -111 90 0 25 23 39 86 51 107 21 142 16 59 -7 -113 -33 -122 -52 -42 -97
28 -16 72 -46 97 -67 25 -21 60 -45 78 -54 33 -15 35 -15 105 22 133 68 297
214 297 264 0 48 -174 170 -284 199 -64 17 -152 18 -166 2 -5 -7 -30 -41 -55
-74 -38 -52 -132 -131 -143 -120 -1 2 26 31 61 65 99 94 122 172 62 199 -30
14 -183 42 -226 42 -16 0 -29 3 -29 8 1 4 21 23 46 42 49 37 126 126 148 169
20 39 4 68 -50 92 -26 11 -45 22 -42 25 7 6 137 -41 151 -55 8 -8 2 -29 -21
-74 -33 -65 -39 -87 -22 -87 23 0 7 -16 -30 -32 -30 -12 -40 -22 -40 -40 0
-20 12 -27 105 -59 l105 -37 41 21 c75 37 209 192 209 243 0 33 -29 51 -139
87 l-103 34 593 298 c549 275 809 410 917 472 23 14 42 23 42 20 0 -8 -201
-131 -355 -218 -71 -41 -335 -177 -585 -304 -358 -181 -456 -234 -458 -250 -2
-17 10 -27 58 -50 33 -16 70 -39 82 -52 21 -23 22 -25 6 -67 -9 -24 -44 -87
-77 -141 -51 -80 -59 -100 -49 -112 18 -22 144 -83 170 -83 13 0 45 15 73 33
27 19 181 114 340 212 484 298 707 456 904 641 223 210 331 429 348 705 7 128
0 179 -27 179 -10 0 -80 -38 -154 -85 -330 -205 -715 -424 -1156 -657 -251
-133 -745 -389 -765 -397 -5 -2 26 29 70 70 290 266 457 453 562 626 59 96 88
167 109 263 15 73 19 206 5 214 -5 3 -53 -47 -107 -112z"/>
<path d="M1835 6280 c-9 -14 68 -203 121 -297 131 -230 372 -492 604 -655 116
-82 210 -129 442 -223 349 -141 533 -488 515 -975 -7 -175 -22 -277 -69 -465
-31 -123 -33 -140 -33 -315 0 -184 0 -186 33 -280 111 -320 354 -551 662 -630
108 -28 272 -37 393 -21 93 13 322 66 419 99 68 22 73 50 13 71 -32 11 -66 11
-175 2 -373 -29 -436 -25 -562 39 -271 136 -486 410 -534 680 -16 91 -18 310
-3 416 6 43 27 132 46 199 99 336 114 422 94 578 -24 195 -96 349 -225 484
-101 107 -160 145 -436 281 -521 257 -812 479 -1170 891 -62 72 -117 131 -121
131 -4 0 -11 -4 -14 -10z"/>
<path d="M19 5063 c-6 -16 -13 -73 -16 -128 -16 -292 144 -537 519 -798 212
-147 343 -222 827 -474 407 -211 392 -206 486 -170 68 26 67 36 -14 128 -68
76 -110 144 -111 177 0 20 90 111 146 147 92 59 92 60 -110 140 -349 140 -871
369 -1089 478 -131 65 -237 120 -235 123 2 2 132 -55 289 -127 444 -204 978
-428 1081 -454 45 -12 44 16 -3 87 -85 128 -97 135 -412 264 -277 114 -592
260 -965 450 -200 101 -368 184 -373 184 -5 0 -14 -12 -20 -27z"/>
<path d="M12405 4915 c-355 -182 -694 -341 -975 -456 -324 -132 -334 -139
-419 -267 -47 -71 -48 -99 -3 -87 103 26 637 250 1081 454 157 72 287 129 289
127 2 -3 -104 -58 -235 -123 -218 -109 -740 -338 -1089 -478 -202 -80 -202
-81 -110 -140 56 -36 146 -127 146 -147 -1 -33 -43 -101 -111 -177 -81 -92
-82 -102 -14 -128 94 -36 79 -41 486 170 484 252 615 327 827 474 299 208 446
388 504 616 31 124 16 339 -24 336 -7 0 -166 -79 -353 -174z"/>
<path d="M64 3725 c-10 -26 16 -224 42 -313 101 -349 365 -515 1024 -646 245
-49 588 -106 602 -101 8 3 31 35 52 72 21 36 65 94 97 129 32 35 59 68 59 73
0 13 -27 27 -66 34 -17 3 -85 31 -150 61 -108 50 -148 63 -424 126 -168 39
-363 86 -435 106 -171 46 -388 114 -382 120 2 2 175 -38 383 -90 733 -183 732
-182 705 -118 -14 34 -4 61 51 138 52 72 54 71 -227 124 -413 78 -784 163
-1142 259 -168 46 -181 47 -189 26z"/>
<path d="M12655 3729 c-16 -6 -160 -43 -320 -84 -335 -85 -578 -138 -930 -205
-281 -53 -279 -52 -227 -124 55 -77 65 -104 51 -138 -27 -64 -28 -65 705 118
208 52 381 92 383 90 6 -6 -211 -74 -382 -120 -71 -20 -267 -67 -435 -106
-276 -63 -316 -76 -424 -126 -65 -30 -133 -58 -150 -61 -39 -7 -66 -21 -66
-34 0 -5 27 -38 59 -73 32 -35 76 -93 97 -129 21 -37 44 -69 52 -72 14 -5 357
52 602 101 659 131 923 298 1024 646 26 89 52 287 42 313 -6 17 -36 18 -81 4z"/>
<path d="M1670 2469 c-375 -133 -700 -234 -1049 -324 -123 -31 -126 -33 -124
-59 3 -39 86 -150 147 -196 111 -84 250 -120 465 -120 202 0 367 25 616 91
169 46 458 139 473 153 20 19 7 38 -63 91 -59 44 -65 52 -65 84 0 21 14 64 35
104 39 75 43 97 19 97 -9 0 -80 -25 -158 -56 -379 -150 -622 -231 -779 -259
-105 -20 -124 -14 -34 8 216 55 528 168 800 291 80 36 149 66 155 66 13 0 46
39 39 46 -3 3 -43 10 -89 15 -46 5 -103 16 -127 24 -25 8 -49 15 -55 15 -6 -1
-99 -32 -206 -71z"/>
<path d="M10867 2525 c-20 -8 -76 -18 -123 -23 -47 -6 -88 -13 -91 -16 -7 -7
26 -46 39 -46 6 0 75 -30 155 -66 272 -123 584 -236 800 -291 90 -22 71 -28
-34 -8 -157 28 -400 109 -779 259 -78 31 -149 56 -158 56 -24 0 -20 -22 19
-97 21 -40 35 -83 35 -104 0 -32 -6 -40 -65 -84 -70 -53 -83 -72 -63 -91 15
-14 304 -107 473 -153 249 -66 414 -91 616 -91 215 0 354 36 465 120 61 46
144 157 147 196 2 26 -1 28 -123 59 -349 90 -606 169 -980 300 -150 52 -277
95 -283 94 -7 0 -29 -7 -50 -14z"/>
<path d="M2420 1996 c-52 -6 -106 -18 -120 -25 -14 -8 -187 -123 -385 -256
-377 -253 -619 -408 -707 -452 -50 -25 -67 -39 -68 -55 0 -16 58 -74 105 -103
210 -134 484 -79 892 176 162 102 421 287 434 311 7 13 4 23 -11 38 -25 25
-25 53 0 158 23 94 25 132 9 132 -14 0 -33 -13 -284 -200 -115 -86 -246 -182
-290 -212 -85 -59 -253 -158 -268 -158 -5 0 82 66 194 147 291 209 515 380
596 456 30 28 35 58 9 56 -6 -1 -54 -7 -106 -13z"/>
<path d="M10257 1997 c-11 -28 190 -190 622 -500 112 -81 199 -147 194 -147
-15 0 -183 99 -268 158 -44 30 -174 126 -290 212 -250 186 -270 200 -284 200
-16 0 -14 -38 9 -132 25 -105 25 -133 0 -158 -15 -15 -18 -25 -11 -38 5 -10
76 -66 158 -124 584 -419 917 -523 1168 -363 47 29 105 87 105 103 -1 16 -18
30 -68 55 -88 44 -330 199 -707 452 -198 133 -373 249 -390 257 -16 9 -64 19
-105 22 -41 4 -87 9 -101 12 -17 3 -28 0 -32 -9z"/>
<path d="M2844 1503 c-297 -359 -589 -683 -615 -683 -5 0 57 78 139 173 311
363 482 576 482 600 0 9 -3 18 -8 21 -10 6 -130 -22 -157 -37 -33 -18 -330
-340 -619 -672 -263 -301 -295 -342 -289 -365 7 -25 84 -67 141 -76 161 -26
439 144 762 466 168 167 343 369 335 388 -3 7 -5 90 -5 183 0 138 -3 169 -14
169 -8 0 -76 -75 -152 -167z"/>
<path d="M9790 1501 c0 -93 -2 -176 -5 -183 -8 -19 167 -221 335 -388 323
-322 601 -492 762 -466 57 9 134 51 141 76 6 23 -26 64 -289 365 -289 332
-586 654 -619 672 -27 15 -147 43 -157 37 -5 -3 -8 -12 -8 -21 0 -24 171 -237
482 -600 82 -95 144 -173 139 -173 -26 0 -318 324 -615 683 -76 92 -144 167
-152 167 -11 0 -14 -31 -14 -169z"/>
<path d="M5265 1628 c-120 -169 -144 -223 -155 -357 -14 -157 -1 -175 69 -95
48 55 76 111 126 254 38 111 41 150 10 196 -19 30 -30 30 -50 2z"/>
<path d="M7485 1626 c-31 -46 -28 -85 10 -196 50 -143 78 -199 126 -254 70
-80 83 -62 69 95 -10 121 -23 156 -93 264 -86 131 -86 131 -112 91z"/>
<path d="M4832 1347 c-59 -80 -111 -175 -113 -207 -1 -8 -4 -4 -8 10 -11 39
-34 30 -48 -20 -21 -70 -93 -440 -93 -477 0 -49 25 -42 90 25 84 87 149 235
215 490 42 161 55 262 33 262 -7 0 -42 -38 -76 -83z"/>
<path d="M7884 1365 c8 -79 64 -300 105 -413 49 -135 92 -213 151 -274 65 -67
90 -74 90 -25 0 37 -72 407 -93 477 -14 50 -37 59 -48 20 -4 -14 -7 -18 -8
-10 -4 53 -159 290 -189 290 -12 0 -14 -12 -8 -65z"/>
<path d="M3201 1167 c-111 -214 -229 -429 -256 -462 -9 -11 31 75 89 191 163
329 212 454 179 454 -3 0 -31 -19 -62 -42 -52 -38 -67 -60 -216 -317 -88 -151
-220 -365 -292 -475 -73 -110 -133 -203 -133 -207 0 -14 76 -19 130 -9 202 38
425 249 682 645 96 147 96 147 49 274 -22 58 -42 116 -46 129 -3 12 -9 22 -13
22 -4 0 -54 -91 -111 -203z"/>
<path d="M9475 1348 c-4 -13 -24 -71 -46 -129 -47 -127 -47 -127 49 -274 257
-396 480 -607 682 -645 54 -10 130 -5 130 9 0 4 -60 97 -132 207 -73 110 -205
324 -293 475 -149 257 -164 279 -216 317 -31 23 -59 42 -62 42 -33 0 16 -125
179 -454 58 -116 98 -202 89 -191 -27 33 -145 248 -256 462 -57 112 -107 203
-111 203 -4 0 -10 -10 -13 -22z"/>
<path d="M3689 1283 c-117 -128 -122 -138 -192 -355 -181 -559 -207 -639 -207
-648 0 -25 52 -21 116 9 120 56 289 252 426 496 83 147 148 277 148 297 0 22
-18 19 -85 -15 -22 -11 -52 -23 -67 -28 -25 -7 -29 -5 -34 19 -23 109 -42 96
-104 -70 -61 -166 -138 -346 -151 -354 -5 -3 -5 5 0 18 5 13 30 77 56 143 128
330 147 388 153 468 2 42 2 77 -1 77 -3 0 -29 -26 -58 -57z"/>
<path d="M9053 1265 c5 -83 21 -133 152 -470 26 -66 51 -130 56 -143 5 -13 5
-21 0 -18 -13 8 -90 188 -151 354 -62 166 -81 179 -104 70 -5 -24 -9 -26 -34
-19 -15 5 -45 17 -67 28 -67 34 -85 37 -85 15 0 -20 65 -150 148 -297 136
-241 305 -439 423 -495 68 -32 85 -35 108 -21 15 9 14 12 -196 659 -71 220
-79 234 -198 358 l-56 59 4 -80z"/>
<path d="M4533 1173 c-17 -32 -40 -80 -51 -108 -11 -27 -61 -137 -111 -243
-97 -206 -108 -236 -93 -246 21 -12 74 49 116 133 41 82 143 328 181 437 17
48 16 84 -2 84 -5 0 -23 -26 -40 -57z"/>
<path d="M8213 1214 c-7 -19 8 -65 90 -269 80 -200 139 -317 177 -349 35 -29
55 -26 46 9 -3 13 -47 110 -97 217 -50 106 -100 216 -111 243 -26 65 -80 165
-91 165 -4 0 -10 -7 -14 -16z"/>
<path d="M4415 1163 c-26 -21 -77 -54 -113 -73 l-66 -35 -51 -135 c-45 -117
-89 -216 -71 -157 3 9 24 76 47 148 32 102 39 138 34 169 -6 38 -38 90 -48 80
-9 -9 -278 -814 -284 -847 -5 -29 -3 -33 17 -33 43 0 140 62 206 133 120 127
229 321 354 631 66 164 62 186 -25 119z"/>
<path d="M8314 1186 c-13 -34 188 -479 279 -619 102 -156 251 -287 327 -287
20 0 22 4 17 33 -6 33 -275 838 -284 847 -10 11 -42 -42 -48 -80 -5 -31 2 -67
34 -169 23 -72 44 -139 47 -148 18 -59 -26 40 -71 157 l-51 135 -66 35 c-36
19 -87 52 -113 73 -53 41 -63 44 -71 23z"/>
<path d="M4567 1063 c-73 -153 -147 -335 -147 -360 0 -32 16 -29 77 13 59 41
60 42 103 233 30 131 38 211 22 211 -5 0 -29 -44 -55 -97z"/>
<path d="M8170 1121 c0 -37 49 -271 71 -338 6 -20 28 -44 62 -67 61 -42 77
-45 77 -13 0 41 -184 457 -202 457 -4 0 -8 -18 -8 -39z"/>
<path d="M3863 652 c-78 -158 -173 -338 -212 -401 -93 -149 -94 -174 -5 -118
108 67 132 100 204 277 62 154 180 486 180 510 0 54 -37 -4 -167 -268z"/>
<path d="M8770 920 c0 -20 110 -336 170 -485 78 -198 110 -241 228 -311 70
-42 65 -11 -23 134 -42 70 -138 252 -213 404 -126 254 -162 312 -162 258z"/>
</g>
</svg>
